<mxfile host="app.diagrams.net" modified="2023-12-17T16:33:39.379Z" agent="Mozilla/5.0 (Windows NT 10.0; Win64; x64) AppleWebKit/537.36 (KHTML, like Gecko) Chrome/120.0.0.0 Safari/537.36" etag="blVpkhWfHoSVG4NKc-QQ" version="22.1.11" type="device">
  <diagram id="C5RBs43oDa-KdzZeNtuy" name="Page-1">
    <mxGraphModel dx="1434" dy="834" grid="1" gridSize="10" guides="1" tooltips="1" connect="1" arrows="1" fold="1" page="1" pageScale="1" pageWidth="827" pageHeight="1169" background="none" math="0" shadow="0">
      <root>
        <mxCell id="WIyWlLk6GJQsqaUBKTNV-0" />
        <mxCell id="WIyWlLk6GJQsqaUBKTNV-1" parent="WIyWlLk6GJQsqaUBKTNV-0" />
        <mxCell id="zkfFHV4jXpPFQw0GAbJ--6" value="BDServeur" style="swimlane;fontStyle=0;align=center;verticalAlign=top;childLayout=stackLayout;horizontal=1;startSize=26;horizontalStack=0;resizeParent=1;resizeLast=0;collapsible=1;marginBottom=0;rounded=0;shadow=0;strokeWidth=1;labelBackgroundColor=none;fillColor=#F5AB50;strokeColor=#909090;fontColor=#1A1A1A;" parent="WIyWlLk6GJQsqaUBKTNV-1" vertex="1">
          <mxGeometry x="60" y="480" width="345" height="294" as="geometry">
            <mxRectangle x="130" y="380" width="160" height="26" as="alternateBounds" />
          </mxGeometry>
        </mxCell>
        <mxCell id="zkfFHV4jXpPFQw0GAbJ--9" value="" style="line;html=1;strokeWidth=1;align=left;verticalAlign=middle;spacingTop=-1;spacingLeft=3;spacingRight=3;rotatable=0;labelPosition=right;points=[];portConstraint=eastwest;rounded=0;labelBackgroundColor=none;fillColor=#F5AB50;strokeColor=#909090;fontColor=#1A1A1A;" parent="zkfFHV4jXpPFQw0GAbJ--6" vertex="1">
          <mxGeometry y="26" width="345" height="8" as="geometry" />
        </mxCell>
        <mxCell id="imeoNMSqgMloeCfzLiQH-70" value="+ load() : void" style="text;align=left;verticalAlign=top;spacingLeft=4;spacingRight=4;overflow=hidden;rotatable=0;points=[[0,0.5],[1,0.5]];portConstraint=eastwest;fontStyle=4;rounded=0;labelBackgroundColor=none;fontColor=#1A1A1A;" parent="zkfFHV4jXpPFQw0GAbJ--6" vertex="1">
          <mxGeometry y="34" width="345" height="26" as="geometry" />
        </mxCell>
        <mxCell id="imeoNMSqgMloeCfzLiQH-71" value="+ save() : void" style="text;align=left;verticalAlign=top;spacingLeft=4;spacingRight=4;overflow=hidden;rotatable=0;points=[[0,0.5],[1,0.5]];portConstraint=eastwest;fontStyle=4;rounded=0;labelBackgroundColor=none;fontColor=#1A1A1A;" parent="zkfFHV4jXpPFQw0GAbJ--6" vertex="1">
          <mxGeometry y="60" width="345" height="26" as="geometry" />
        </mxCell>
        <mxCell id="zkfFHV4jXpPFQw0GAbJ--10" value="+ getUtilisateur( pseudo : String ) : Utilisateur" style="text;align=left;verticalAlign=top;spacingLeft=4;spacingRight=4;overflow=hidden;rotatable=0;points=[[0,0.5],[1,0.5]];portConstraint=eastwest;fontStyle=4;rounded=0;labelBackgroundColor=none;fontColor=#1A1A1A;" parent="zkfFHV4jXpPFQw0GAbJ--6" vertex="1">
          <mxGeometry y="86" width="345" height="26" as="geometry" />
        </mxCell>
        <mxCell id="imeoNMSqgMloeCfzLiQH-62" value="+ getMessage( idMessage : int ) : Message" style="text;align=left;verticalAlign=top;spacingLeft=4;spacingRight=4;overflow=hidden;rotatable=0;points=[[0,0.5],[1,0.5]];portConstraint=eastwest;fontStyle=4;rounded=0;labelBackgroundColor=none;fontColor=#1A1A1A;" parent="zkfFHV4jXpPFQw0GAbJ--6" vertex="1">
          <mxGeometry y="112" width="345" height="26" as="geometry" />
        </mxCell>
        <mxCell id="6N-OR-rX7I9fa5nj2j5N-81" value="+ addUtilisateur( pseudo : String ) : void" style="text;align=left;verticalAlign=top;spacingLeft=4;spacingRight=4;overflow=hidden;rotatable=0;points=[[0,0.5],[1,0.5]];portConstraint=eastwest;fontStyle=4;rounded=0;labelBackgroundColor=none;fontColor=#1A1A1A;" vertex="1" parent="zkfFHV4jXpPFQw0GAbJ--6">
          <mxGeometry y="138" width="345" height="26" as="geometry" />
        </mxCell>
        <mxCell id="6N-OR-rX7I9fa5nj2j5N-85" value="+ delUtilisateur( pseudo : String ) : void" style="text;align=left;verticalAlign=top;spacingLeft=4;spacingRight=4;overflow=hidden;rotatable=0;points=[[0,0.5],[1,0.5]];portConstraint=eastwest;fontStyle=4;rounded=0;labelBackgroundColor=none;fontColor=#1A1A1A;" vertex="1" parent="zkfFHV4jXpPFQw0GAbJ--6">
          <mxGeometry y="164" width="345" height="26" as="geometry" />
        </mxCell>
        <mxCell id="6N-OR-rX7I9fa5nj2j5N-84" value="+ addMessage( contenu : String, auteur : Utilisateur) : void" style="text;align=left;verticalAlign=top;spacingLeft=4;spacingRight=4;overflow=hidden;rotatable=0;points=[[0,0.5],[1,0.5]];portConstraint=eastwest;fontStyle=4;rounded=0;labelBackgroundColor=none;fontColor=#1A1A1A;" vertex="1" parent="zkfFHV4jXpPFQw0GAbJ--6">
          <mxGeometry y="190" width="345" height="26" as="geometry" />
        </mxCell>
        <mxCell id="6N-OR-rX7I9fa5nj2j5N-83" value="+ delMessage( idMessage : int ) : void" style="text;align=left;verticalAlign=top;spacingLeft=4;spacingRight=4;overflow=hidden;rotatable=0;points=[[0,0.5],[1,0.5]];portConstraint=eastwest;fontStyle=4;rounded=0;labelBackgroundColor=none;fontColor=#1A1A1A;" vertex="1" parent="zkfFHV4jXpPFQw0GAbJ--6">
          <mxGeometry y="216" width="345" height="26" as="geometry" />
        </mxCell>
        <mxCell id="6N-OR-rX7I9fa5nj2j5N-82" value="+ addFollower( followed : String, follower : String ) : void" style="text;align=left;verticalAlign=top;spacingLeft=4;spacingRight=4;overflow=hidden;rotatable=0;points=[[0,0.5],[1,0.5]];portConstraint=eastwest;fontStyle=4;rounded=0;labelBackgroundColor=none;fontColor=#1A1A1A;" vertex="1" parent="zkfFHV4jXpPFQw0GAbJ--6">
          <mxGeometry y="242" width="345" height="26" as="geometry" />
        </mxCell>
        <mxCell id="6N-OR-rX7I9fa5nj2j5N-80" value="+ delFollower( followed : String, follower : String ) : void" style="text;align=left;verticalAlign=top;spacingLeft=4;spacingRight=4;overflow=hidden;rotatable=0;points=[[0,0.5],[1,0.5]];portConstraint=eastwest;fontStyle=4;rounded=0;labelBackgroundColor=none;fontColor=#1A1A1A;" vertex="1" parent="zkfFHV4jXpPFQw0GAbJ--6">
          <mxGeometry y="268" width="345" height="26" as="geometry" />
        </mxCell>
        <mxCell id="zkfFHV4jXpPFQw0GAbJ--17" value="Utilisateur" style="swimlane;fontStyle=0;align=center;verticalAlign=top;childLayout=stackLayout;horizontal=1;startSize=26;horizontalStack=0;resizeParent=1;resizeLast=0;collapsible=1;marginBottom=0;rounded=0;shadow=0;strokeWidth=1;labelBackgroundColor=none;fillColor=#F5AB50;strokeColor=#909090;fontColor=#1A1A1A;" parent="WIyWlLk6GJQsqaUBKTNV-1" vertex="1">
          <mxGeometry x="520" y="110" width="272" height="380" as="geometry">
            <mxRectangle x="550" y="140" width="160" height="26" as="alternateBounds" />
          </mxGeometry>
        </mxCell>
        <mxCell id="zkfFHV4jXpPFQw0GAbJ--18" value="- pseudo : String" style="text;align=left;verticalAlign=top;spacingLeft=4;spacingRight=4;overflow=hidden;rotatable=0;points=[[0,0.5],[1,0.5]];portConstraint=eastwest;rounded=0;labelBackgroundColor=none;fontColor=#1A1A1A;" parent="zkfFHV4jXpPFQw0GAbJ--17" vertex="1">
          <mxGeometry y="26" width="272" height="26" as="geometry" />
        </mxCell>
        <mxCell id="v9WixqbBMcyCCrdCrNqH-0" value="- connected : boolean" style="text;align=left;verticalAlign=top;spacingLeft=4;spacingRight=4;overflow=hidden;rotatable=0;points=[[0,0.5],[1,0.5]];portConstraint=eastwest;rounded=0;labelBackgroundColor=none;fontColor=#1A1A1A;" parent="zkfFHV4jXpPFQw0GAbJ--17" vertex="1">
          <mxGeometry y="52" width="272" height="26" as="geometry" />
        </mxCell>
        <mxCell id="zkfFHV4jXpPFQw0GAbJ--22" value="- /nbFollowers : int" style="text;align=left;verticalAlign=top;spacingLeft=4;spacingRight=4;overflow=hidden;rotatable=0;points=[[0,0.5],[1,0.5]];portConstraint=eastwest;rounded=0;shadow=0;html=0;labelBackgroundColor=none;fontColor=#1A1A1A;" parent="zkfFHV4jXpPFQw0GAbJ--17" vertex="1">
          <mxGeometry y="78" width="272" height="26" as="geometry" />
        </mxCell>
        <mxCell id="zkfFHV4jXpPFQw0GAbJ--23" value="" style="line;html=1;strokeWidth=1;align=left;verticalAlign=middle;spacingTop=-1;spacingLeft=3;spacingRight=3;rotatable=0;labelPosition=right;points=[];portConstraint=eastwest;rounded=0;labelBackgroundColor=none;fillColor=#F5AB50;strokeColor=#909090;fontColor=#1A1A1A;" parent="zkfFHV4jXpPFQw0GAbJ--17" vertex="1">
          <mxGeometry y="104" width="272" height="8" as="geometry" />
        </mxCell>
        <mxCell id="imeoNMSqgMloeCfzLiQH-17" value="+ Utilisateur( pseudo: String )&#xa;" style="text;align=left;verticalAlign=top;spacingLeft=4;spacingRight=4;overflow=hidden;rotatable=0;points=[[0,0.5],[1,0.5]];portConstraint=eastwest;rounded=0;labelBackgroundColor=none;fontColor=#1A1A1A;" parent="zkfFHV4jXpPFQw0GAbJ--17" vertex="1">
          <mxGeometry y="112" width="272" height="26" as="geometry" />
        </mxCell>
        <mxCell id="imeoNMSqgMloeCfzLiQH-29" value="+ follow( nomUtil : String ) : void" style="text;align=left;verticalAlign=top;spacingLeft=4;spacingRight=4;overflow=hidden;rotatable=0;points=[[0,0.5],[1,0.5]];portConstraint=eastwest;rounded=0;labelBackgroundColor=none;fontColor=#1A1A1A;" parent="zkfFHV4jXpPFQw0GAbJ--17" vertex="1">
          <mxGeometry y="138" width="272" height="26" as="geometry" />
        </mxCell>
        <mxCell id="imeoNMSqgMloeCfzLiQH-31" value="+ unfollow( nomUtil : String ) : void" style="text;align=left;verticalAlign=top;spacingLeft=4;spacingRight=4;overflow=hidden;rotatable=0;points=[[0,0.5],[1,0.5]];portConstraint=eastwest;rounded=0;labelBackgroundColor=none;fontColor=#1A1A1A;" parent="zkfFHV4jXpPFQw0GAbJ--17" vertex="1">
          <mxGeometry y="164" width="272" height="26" as="geometry" />
        </mxCell>
        <mxCell id="imeoNMSqgMloeCfzLiQH-32" value="+ like( idMessage : int ) : void" style="text;align=left;verticalAlign=top;spacingLeft=4;spacingRight=4;overflow=hidden;rotatable=0;points=[[0,0.5],[1,0.5]];portConstraint=eastwest;rounded=0;labelBackgroundColor=none;fontColor=#1A1A1A;" parent="zkfFHV4jXpPFQw0GAbJ--17" vertex="1">
          <mxGeometry y="190" width="272" height="26" as="geometry" />
        </mxCell>
        <mxCell id="imeoNMSqgMloeCfzLiQH-67" value="+ dislike( idMessage : int ) : void" style="text;align=left;verticalAlign=top;spacingLeft=4;spacingRight=4;overflow=hidden;rotatable=0;points=[[0,0.5],[1,0.5]];portConstraint=eastwest;rounded=0;labelBackgroundColor=none;fontColor=#1A1A1A;" parent="zkfFHV4jXpPFQw0GAbJ--17" vertex="1">
          <mxGeometry y="216" width="272" height="26" as="geometry" />
        </mxCell>
        <mxCell id="imeoNMSqgMloeCfzLiQH-61" value="+ delete( idMessage : int ) : void" style="text;align=left;verticalAlign=top;spacingLeft=4;spacingRight=4;overflow=hidden;rotatable=0;points=[[0,0.5],[1,0.5]];portConstraint=eastwest;rounded=0;labelBackgroundColor=none;fontColor=#1A1A1A;" parent="zkfFHV4jXpPFQw0GAbJ--17" vertex="1">
          <mxGeometry y="242" width="272" height="26" as="geometry" />
        </mxCell>
        <mxCell id="imeoNMSqgMloeCfzLiQH-0" value="Message" style="swimlane;fontStyle=0;align=center;verticalAlign=top;childLayout=stackLayout;horizontal=1;startSize=26;horizontalStack=0;resizeParent=1;resizeLast=0;collapsible=1;marginBottom=0;rounded=0;shadow=0;strokeWidth=1;labelBackgroundColor=none;fillColor=#F5AB50;strokeColor=#909090;fontColor=#1A1A1A;" parent="WIyWlLk6GJQsqaUBKTNV-1" vertex="1">
          <mxGeometry x="60" y="127.5" width="240" height="282.5" as="geometry">
            <mxRectangle x="130" y="380" width="160" height="26" as="alternateBounds" />
          </mxGeometry>
        </mxCell>
        <mxCell id="imeoNMSqgMloeCfzLiQH-6" value="- id : int" style="text;align=left;verticalAlign=top;spacingLeft=4;spacingRight=4;overflow=hidden;rotatable=0;points=[[0,0.5],[1,0.5]];portConstraint=eastwest;rounded=0;shadow=0;html=0;labelBackgroundColor=none;fontColor=#1A1A1A;" parent="imeoNMSqgMloeCfzLiQH-0" vertex="1">
          <mxGeometry y="26" width="240" height="26" as="geometry" />
        </mxCell>
        <mxCell id="imeoNMSqgMloeCfzLiQH-1" value="- contenu : String" style="text;align=left;verticalAlign=top;spacingLeft=4;spacingRight=4;overflow=hidden;rotatable=0;points=[[0,0.5],[1,0.5]];portConstraint=eastwest;rounded=0;labelBackgroundColor=none;fontColor=#1A1A1A;" parent="imeoNMSqgMloeCfzLiQH-0" vertex="1">
          <mxGeometry y="52" width="240" height="26" as="geometry" />
        </mxCell>
        <mxCell id="imeoNMSqgMloeCfzLiQH-7" value="- date : datetime" style="text;align=left;verticalAlign=top;spacingLeft=4;spacingRight=4;overflow=hidden;rotatable=0;points=[[0,0.5],[1,0.5]];portConstraint=eastwest;rounded=0;labelBackgroundColor=none;fontColor=#1A1A1A;" parent="imeoNMSqgMloeCfzLiQH-0" vertex="1">
          <mxGeometry y="78" width="240" height="26" as="geometry" />
        </mxCell>
        <mxCell id="imeoNMSqgMloeCfzLiQH-2" value="- /nbLikes : int&#xa;" style="text;align=left;verticalAlign=top;spacingLeft=4;spacingRight=4;overflow=hidden;rotatable=0;points=[[0,0.5],[1,0.5]];portConstraint=eastwest;rounded=0;shadow=0;html=0;labelBackgroundColor=none;fontColor=#1A1A1A;" parent="imeoNMSqgMloeCfzLiQH-0" vertex="1">
          <mxGeometry y="104" width="240" height="26" as="geometry" />
        </mxCell>
        <mxCell id="imeoNMSqgMloeCfzLiQH-3" value="" style="line;html=1;strokeWidth=1;align=left;verticalAlign=middle;spacingTop=-1;spacingLeft=3;spacingRight=3;rotatable=0;labelPosition=right;points=[];portConstraint=eastwest;rounded=0;labelBackgroundColor=none;fillColor=#F5AB50;strokeColor=#909090;fontColor=#1A1A1A;" parent="imeoNMSqgMloeCfzLiQH-0" vertex="1">
          <mxGeometry y="130" width="240" height="8" as="geometry" />
        </mxCell>
        <mxCell id="imeoNMSqgMloeCfzLiQH-34" value="+ Message( id: int, contenu: String)" style="text;align=left;verticalAlign=top;spacingLeft=4;spacingRight=4;overflow=hidden;rotatable=0;points=[[0,0.5],[1,0.5]];portConstraint=eastwest;rounded=0;labelBackgroundColor=none;fontColor=#1A1A1A;" parent="imeoNMSqgMloeCfzLiQH-0" vertex="1">
          <mxGeometry y="138" width="240" height="26" as="geometry" />
        </mxCell>
        <mxCell id="imeoNMSqgMloeCfzLiQH-33" value="+ addLike( util: Utilisateur ) : void" style="text;align=left;verticalAlign=top;spacingLeft=4;spacingRight=4;overflow=hidden;rotatable=0;points=[[0,0.5],[1,0.5]];portConstraint=eastwest;rounded=0;labelBackgroundColor=none;fontColor=#1A1A1A;" parent="imeoNMSqgMloeCfzLiQH-0" vertex="1">
          <mxGeometry y="164" width="240" height="26" as="geometry" />
        </mxCell>
        <mxCell id="imeoNMSqgMloeCfzLiQH-68" value="+ delLike( util: Utilisateur ) : void" style="text;align=left;verticalAlign=top;spacingLeft=4;spacingRight=4;overflow=hidden;rotatable=0;points=[[0,0.5],[1,0.5]];portConstraint=eastwest;rounded=0;labelBackgroundColor=none;fontColor=#1A1A1A;" parent="imeoNMSqgMloeCfzLiQH-0" vertex="1">
          <mxGeometry y="190" width="240" height="26" as="geometry" />
        </mxCell>
        <mxCell id="imeoNMSqgMloeCfzLiQH-35" value="Client" style="swimlane;fontStyle=0;align=center;verticalAlign=top;childLayout=stackLayout;horizontal=1;startSize=26;horizontalStack=0;resizeParent=1;resizeLast=0;collapsible=1;marginBottom=0;rounded=0;shadow=0;strokeWidth=1;labelBackgroundColor=none;fillColor=#F5AB50;strokeColor=#909090;fontColor=#1A1A1A;" parent="WIyWlLk6GJQsqaUBKTNV-1" vertex="1">
          <mxGeometry x="130" y="790" width="160" height="164" as="geometry">
            <mxRectangle x="440" y="520" width="160" height="26" as="alternateBounds" />
          </mxGeometry>
        </mxCell>
        <mxCell id="imeoNMSqgMloeCfzLiQH-36" value="- pseudo : String" style="text;align=left;verticalAlign=top;spacingLeft=4;spacingRight=4;overflow=hidden;rotatable=0;points=[[0,0.5],[1,0.5]];portConstraint=eastwest;rounded=0;labelBackgroundColor=none;fontColor=#1A1A1A;" parent="imeoNMSqgMloeCfzLiQH-35" vertex="1">
          <mxGeometry y="26" width="160" height="26" as="geometry" />
        </mxCell>
        <mxCell id="imeoNMSqgMloeCfzLiQH-63" value="- ip : String" style="text;align=left;verticalAlign=top;spacingLeft=4;spacingRight=4;overflow=hidden;rotatable=0;points=[[0,0.5],[1,0.5]];portConstraint=eastwest;rounded=0;shadow=0;html=0;fontStyle=0;labelBackgroundColor=none;fontColor=#1A1A1A;" parent="imeoNMSqgMloeCfzLiQH-35" vertex="1">
          <mxGeometry y="52" width="160" height="26" as="geometry" />
        </mxCell>
        <mxCell id="imeoNMSqgMloeCfzLiQH-69" value="- IP_SERVEUR : String" style="text;align=left;verticalAlign=top;spacingLeft=4;spacingRight=4;overflow=hidden;rotatable=0;points=[[0,0.5],[1,0.5]];portConstraint=eastwest;rounded=0;shadow=0;html=0;fontStyle=4;labelBackgroundColor=none;fontColor=#1A1A1A;" parent="imeoNMSqgMloeCfzLiQH-35" vertex="1">
          <mxGeometry y="78" width="160" height="26" as="geometry" />
        </mxCell>
        <mxCell id="imeoNMSqgMloeCfzLiQH-64" value="- PORT_SERVEUR : int" style="text;align=left;verticalAlign=top;spacingLeft=4;spacingRight=4;overflow=hidden;rotatable=0;points=[[0,0.5],[1,0.5]];portConstraint=eastwest;rounded=0;shadow=0;html=0;fontStyle=4;labelBackgroundColor=none;fontColor=#1A1A1A;" parent="imeoNMSqgMloeCfzLiQH-35" vertex="1">
          <mxGeometry y="104" width="160" height="26" as="geometry" />
        </mxCell>
        <mxCell id="imeoNMSqgMloeCfzLiQH-38" value="" style="line;html=1;strokeWidth=1;align=left;verticalAlign=middle;spacingTop=-1;spacingLeft=3;spacingRight=3;rotatable=0;labelPosition=right;points=[];portConstraint=eastwest;rounded=0;labelBackgroundColor=none;fillColor=#F5AB50;strokeColor=#909090;fontColor=#1A1A1A;" parent="imeoNMSqgMloeCfzLiQH-35" vertex="1">
          <mxGeometry y="130" width="160" height="8" as="geometry" />
        </mxCell>
        <mxCell id="imeoNMSqgMloeCfzLiQH-66" value="+ main( args: String[] ) : void" style="text;align=left;verticalAlign=top;spacingLeft=4;spacingRight=4;overflow=hidden;rotatable=0;points=[[0,0.5],[1,0.5]];portConstraint=eastwest;fontStyle=4;rounded=0;labelBackgroundColor=none;fontColor=#1A1A1A;" parent="imeoNMSqgMloeCfzLiQH-35" vertex="1">
          <mxGeometry y="138" width="160" height="26" as="geometry" />
        </mxCell>
        <mxCell id="imeoNMSqgMloeCfzLiQH-42" value="Serveur" style="swimlane;fontStyle=0;align=center;verticalAlign=top;childLayout=stackLayout;horizontal=1;startSize=26;horizontalStack=0;resizeParent=1;resizeLast=0;collapsible=1;marginBottom=0;rounded=0;shadow=0;strokeWidth=1;labelBackgroundColor=none;fillColor=#F5AB50;strokeColor=#909090;fontColor=#1A1A1A;" parent="WIyWlLk6GJQsqaUBKTNV-1" vertex="1">
          <mxGeometry x="470" y="790" width="160" height="86" as="geometry">
            <mxRectangle x="130" y="380" width="160" height="26" as="alternateBounds" />
          </mxGeometry>
        </mxCell>
        <mxCell id="imeoNMSqgMloeCfzLiQH-43" value="- PORT : int" style="text;align=left;verticalAlign=top;spacingLeft=4;spacingRight=4;overflow=hidden;rotatable=0;points=[[0,0.5],[1,0.5]];portConstraint=eastwest;fontStyle=4;rounded=0;labelBackgroundColor=none;fontColor=#1A1A1A;" parent="imeoNMSqgMloeCfzLiQH-42" vertex="1">
          <mxGeometry y="26" width="160" height="26" as="geometry" />
        </mxCell>
        <mxCell id="imeoNMSqgMloeCfzLiQH-45" value="" style="line;html=1;strokeWidth=1;align=left;verticalAlign=middle;spacingTop=-1;spacingLeft=3;spacingRight=3;rotatable=0;labelPosition=right;points=[];portConstraint=eastwest;rounded=0;labelBackgroundColor=none;fillColor=#F5AB50;strokeColor=#909090;fontColor=#1A1A1A;" parent="imeoNMSqgMloeCfzLiQH-42" vertex="1">
          <mxGeometry y="52" width="160" height="8" as="geometry" />
        </mxCell>
        <mxCell id="imeoNMSqgMloeCfzLiQH-65" value="+ main( args: String[] ) : void" style="text;align=left;verticalAlign=top;spacingLeft=4;spacingRight=4;overflow=hidden;rotatable=0;points=[[0,0.5],[1,0.5]];portConstraint=eastwest;fontStyle=4;rounded=0;labelBackgroundColor=none;fontColor=#1A1A1A;" parent="imeoNMSqgMloeCfzLiQH-42" vertex="1">
          <mxGeometry y="60" width="160" height="26" as="geometry" />
        </mxCell>
        <mxCell id="6N-OR-rX7I9fa5nj2j5N-61" value="" style="group;rounded=0;labelBackgroundColor=none;fontColor=#1A1A1A;" vertex="1" connectable="0" parent="WIyWlLk6GJQsqaUBKTNV-1">
          <mxGeometry x="455" y="320" width="85" height="60" as="geometry" />
        </mxCell>
        <mxCell id="6N-OR-rX7I9fa5nj2j5N-58" value="" style="endArrow=classic;html=1;rounded=0;exitX=0.75;exitY=0;exitDx=0;exitDy=0;entryX=0;entryY=0.5;entryDx=0;entryDy=0;labelBackgroundColor=none;strokeColor=#182E3E;fontColor=default;" edge="1" parent="6N-OR-rX7I9fa5nj2j5N-61" source="zkfFHV4jXpPFQw0GAbJ--6" target="imeoNMSqgMloeCfzLiQH-67">
          <mxGeometry width="50" height="50" relative="1" as="geometry">
            <mxPoint x="-71" y="171" as="sourcePoint" />
            <mxPoint x="75" y="110" as="targetPoint" />
          </mxGeometry>
        </mxCell>
        <mxCell id="6N-OR-rX7I9fa5nj2j5N-59" value="&lt;u&gt;follows&lt;/u&gt;" style="text;html=1;align=center;verticalAlign=middle;resizable=0;points=[];autosize=1;strokeColor=none;fillColor=none;rounded=0;labelBackgroundColor=none;fontColor=#1A1A1A;" vertex="1" parent="6N-OR-rX7I9fa5nj2j5N-61">
          <mxGeometry width="60" height="30" as="geometry" />
        </mxCell>
        <mxCell id="6N-OR-rX7I9fa5nj2j5N-60" value="&lt;font style=&quot;font-size: 18px;&quot;&gt;*&lt;/font&gt;" style="text;html=1;strokeColor=none;fillColor=none;align=center;verticalAlign=middle;whiteSpace=wrap;rounded=0;labelBackgroundColor=none;fontColor=#1A1A1A;" vertex="1" parent="6N-OR-rX7I9fa5nj2j5N-61">
          <mxGeometry x="25" y="40" width="60" height="20" as="geometry" />
        </mxCell>
        <mxCell id="6N-OR-rX7I9fa5nj2j5N-62" value="" style="group;rounded=0;labelBackgroundColor=none;fontColor=#1A1A1A;" vertex="1" connectable="0" parent="WIyWlLk6GJQsqaUBKTNV-1">
          <mxGeometry x="450" y="395" width="85" height="55" as="geometry" />
        </mxCell>
        <mxCell id="6N-OR-rX7I9fa5nj2j5N-55" value="" style="endArrow=classic;html=1;rounded=0;exitX=0.897;exitY=0.007;exitDx=0;exitDy=0;exitPerimeter=0;labelBackgroundColor=none;strokeColor=#182E3E;fontColor=default;" edge="1" parent="6N-OR-rX7I9fa5nj2j5N-62" source="zkfFHV4jXpPFQw0GAbJ--6">
          <mxGeometry width="50" height="50" relative="1" as="geometry">
            <mxPoint x="-35" y="95" as="sourcePoint" />
            <mxPoint x="70" y="25" as="targetPoint" />
          </mxGeometry>
        </mxCell>
        <mxCell id="6N-OR-rX7I9fa5nj2j5N-56" value="&lt;font style=&quot;font-size: 18px;&quot;&gt;*&lt;/font&gt;" style="text;html=1;strokeColor=none;fillColor=none;align=center;verticalAlign=middle;whiteSpace=wrap;rounded=0;labelBackgroundColor=none;fontColor=#1A1A1A;" vertex="1" parent="6N-OR-rX7I9fa5nj2j5N-62">
          <mxGeometry x="25" y="35" width="60" height="20" as="geometry" />
        </mxCell>
        <mxCell id="6N-OR-rX7I9fa5nj2j5N-57" value="&lt;u&gt;followers&lt;/u&gt;" style="text;html=1;align=center;verticalAlign=middle;resizable=0;points=[];autosize=1;strokeColor=none;fillColor=none;rounded=0;labelBackgroundColor=none;fontColor=#1A1A1A;" vertex="1" parent="6N-OR-rX7I9fa5nj2j5N-62">
          <mxGeometry width="70" height="30" as="geometry" />
        </mxCell>
        <mxCell id="6N-OR-rX7I9fa5nj2j5N-63" value="" style="group;rounded=0;labelBackgroundColor=none;fontColor=#1A1A1A;" vertex="1" connectable="0" parent="WIyWlLk6GJQsqaUBKTNV-1">
          <mxGeometry x="445" y="440" width="95" height="60" as="geometry" />
        </mxCell>
        <mxCell id="imeoNMSqgMloeCfzLiQH-53" value="" style="endArrow=classic;html=1;rounded=0;exitX=1;exitY=0;exitDx=0;exitDy=0;labelBackgroundColor=none;strokeColor=#182E3E;fontColor=default;" parent="6N-OR-rX7I9fa5nj2j5N-63" source="zkfFHV4jXpPFQw0GAbJ--6" edge="1">
          <mxGeometry width="50" height="50" relative="1" as="geometry">
            <mxPoint x="-65" y="-60" as="sourcePoint" />
            <mxPoint x="75" y="30" as="targetPoint" />
          </mxGeometry>
        </mxCell>
        <mxCell id="imeoNMSqgMloeCfzLiQH-54" value="&lt;font style=&quot;font-size: 18px;&quot;&gt;*&lt;/font&gt;" style="text;html=1;strokeColor=none;fillColor=none;align=center;verticalAlign=middle;whiteSpace=wrap;rounded=0;labelBackgroundColor=none;fontColor=#1A1A1A;" parent="6N-OR-rX7I9fa5nj2j5N-63" vertex="1">
          <mxGeometry x="35" y="40" width="60" height="20" as="geometry" />
        </mxCell>
        <mxCell id="imeoNMSqgMloeCfzLiQH-55" value="&lt;u&gt;- utilisateurs&lt;/u&gt;" style="text;html=1;align=center;verticalAlign=middle;resizable=0;points=[];autosize=1;strokeColor=none;fillColor=none;rounded=0;labelBackgroundColor=none;fontColor=#1A1A1A;" parent="6N-OR-rX7I9fa5nj2j5N-63" vertex="1">
          <mxGeometry width="90" height="30" as="geometry" />
        </mxCell>
        <mxCell id="6N-OR-rX7I9fa5nj2j5N-78" value="&amp;lt;&amp;lt;map&amp;gt;&amp;gt;" style="text;html=1;strokeColor=none;fillColor=none;align=center;verticalAlign=middle;whiteSpace=wrap;rounded=0;labelBackgroundColor=none;fontColor=#1A1A1A;" vertex="1" parent="6N-OR-rX7I9fa5nj2j5N-63">
          <mxGeometry x="-51" y="-10" width="60" height="30" as="geometry" />
        </mxCell>
        <mxCell id="6N-OR-rX7I9fa5nj2j5N-79" value="&amp;lt;&amp;lt;map&amp;gt;&amp;gt;" style="text;html=1;strokeColor=none;fillColor=none;align=center;verticalAlign=middle;whiteSpace=wrap;rounded=0;labelBackgroundColor=none;fontColor=#1A1A1A;" vertex="1" parent="6N-OR-rX7I9fa5nj2j5N-63">
          <mxGeometry x="-25" y="30" width="60" height="30" as="geometry" />
        </mxCell>
        <mxCell id="6N-OR-rX7I9fa5nj2j5N-64" value="" style="group;rounded=0;labelBackgroundColor=none;fontColor=#1A1A1A;" vertex="1" connectable="0" parent="WIyWlLk6GJQsqaUBKTNV-1">
          <mxGeometry x="140" y="415" width="120" height="30" as="geometry" />
        </mxCell>
        <mxCell id="imeoNMSqgMloeCfzLiQH-52" value="" style="endArrow=classic;html=1;rounded=0;exitX=0.345;exitY=0.001;exitDx=0;exitDy=0;entryX=0.5;entryY=1;entryDx=0;entryDy=0;exitPerimeter=0;labelBackgroundColor=none;strokeColor=#182E3E;fontColor=default;" parent="6N-OR-rX7I9fa5nj2j5N-64" source="zkfFHV4jXpPFQw0GAbJ--6" target="imeoNMSqgMloeCfzLiQH-0" edge="1">
          <mxGeometry width="50" height="50" relative="1" as="geometry">
            <mxPoint x="130" y="35" as="sourcePoint" />
            <mxPoint x="-30" y="35" as="targetPoint" />
          </mxGeometry>
        </mxCell>
        <mxCell id="imeoNMSqgMloeCfzLiQH-56" value="&lt;font style=&quot;font-size: 18px;&quot;&gt;*&lt;/font&gt;" style="text;html=1;strokeColor=none;fillColor=none;align=center;verticalAlign=middle;whiteSpace=wrap;rounded=0;labelBackgroundColor=none;fontColor=#1A1A1A;" parent="6N-OR-rX7I9fa5nj2j5N-64" vertex="1">
          <mxGeometry y="10" width="60" height="20" as="geometry" />
        </mxCell>
        <mxCell id="imeoNMSqgMloeCfzLiQH-57" value="&lt;u&gt;- messages&lt;/u&gt;" style="text;html=1;align=center;verticalAlign=middle;resizable=0;points=[];autosize=1;strokeColor=none;fillColor=none;rounded=0;labelBackgroundColor=none;fontColor=#1A1A1A;" parent="6N-OR-rX7I9fa5nj2j5N-64" vertex="1">
          <mxGeometry x="30" width="90" height="30" as="geometry" />
        </mxCell>
        <mxCell id="6N-OR-rX7I9fa5nj2j5N-65" value="" style="group;rounded=0;labelBackgroundColor=none;fontColor=#1A1A1A;" vertex="1" connectable="0" parent="WIyWlLk6GJQsqaUBKTNV-1">
          <mxGeometry x="290" y="200" width="235" height="50" as="geometry" />
        </mxCell>
        <mxCell id="imeoNMSqgMloeCfzLiQH-16" value="" style="endArrow=none;html=1;rounded=0;entryX=0;entryY=0.5;entryDx=0;entryDy=0;exitX=0.999;exitY=0.86;exitDx=0;exitDy=0;exitPerimeter=0;labelBackgroundColor=none;strokeColor=#182E3E;fontColor=default;" parent="6N-OR-rX7I9fa5nj2j5N-65" source="imeoNMSqgMloeCfzLiQH-7" edge="1">
          <mxGeometry width="50" height="50" relative="1" as="geometry">
            <mxPoint x="40" y="30" as="sourcePoint" />
            <mxPoint x="230" y="27" as="targetPoint" />
          </mxGeometry>
        </mxCell>
        <mxCell id="imeoNMSqgMloeCfzLiQH-19" value="- messages" style="text;html=1;strokeColor=none;fillColor=none;align=center;verticalAlign=middle;whiteSpace=wrap;rounded=0;labelBackgroundColor=none;fontColor=#1A1A1A;" parent="6N-OR-rX7I9fa5nj2j5N-65" vertex="1">
          <mxGeometry x="10" width="80" height="30" as="geometry" />
        </mxCell>
        <mxCell id="imeoNMSqgMloeCfzLiQH-20" value="&lt;font style=&quot;font-size: 18px;&quot;&gt;*&lt;/font&gt;" style="text;html=1;strokeColor=none;fillColor=none;align=center;verticalAlign=middle;whiteSpace=wrap;rounded=0;labelBackgroundColor=none;fontColor=#1A1A1A;" parent="6N-OR-rX7I9fa5nj2j5N-65" vertex="1">
          <mxGeometry y="35" width="60" height="10" as="geometry" />
        </mxCell>
        <mxCell id="imeoNMSqgMloeCfzLiQH-22" value="1" style="text;html=1;strokeColor=none;fillColor=none;align=center;verticalAlign=middle;whiteSpace=wrap;rounded=0;labelBackgroundColor=none;fontColor=#1A1A1A;" parent="6N-OR-rX7I9fa5nj2j5N-65" vertex="1">
          <mxGeometry x="175" y="30" width="60" height="20" as="geometry" />
        </mxCell>
        <mxCell id="imeoNMSqgMloeCfzLiQH-23" value="- auteur" style="text;html=1;strokeColor=none;fillColor=none;align=center;verticalAlign=middle;whiteSpace=wrap;rounded=0;labelBackgroundColor=none;fontColor=#1A1A1A;" parent="6N-OR-rX7I9fa5nj2j5N-65" vertex="1">
          <mxGeometry x="165" width="70" height="30" as="geometry" />
        </mxCell>
        <mxCell id="6N-OR-rX7I9fa5nj2j5N-67" value="" style="group;rounded=0;labelBackgroundColor=none;fontColor=#1A1A1A;" vertex="1" connectable="0" parent="WIyWlLk6GJQsqaUBKTNV-1">
          <mxGeometry x="460" y="140" width="65" height="60" as="geometry" />
        </mxCell>
        <mxCell id="6N-OR-rX7I9fa5nj2j5N-66" value="" style="group;rounded=0;labelBackgroundColor=none;fontColor=#1A1A1A;" vertex="1" connectable="0" parent="6N-OR-rX7I9fa5nj2j5N-67">
          <mxGeometry width="65" height="60" as="geometry" />
        </mxCell>
        <mxCell id="imeoNMSqgMloeCfzLiQH-25" value="- likes" style="text;html=1;strokeColor=none;fillColor=none;align=center;verticalAlign=middle;whiteSpace=wrap;rounded=0;labelBackgroundColor=none;fontColor=#1A1A1A;" parent="6N-OR-rX7I9fa5nj2j5N-66" vertex="1">
          <mxGeometry width="60" height="30" as="geometry" />
        </mxCell>
        <mxCell id="imeoNMSqgMloeCfzLiQH-26" value="&lt;font style=&quot;font-size: 18px;&quot;&gt;*&lt;/font&gt;" style="text;html=1;strokeColor=none;fillColor=none;align=center;verticalAlign=middle;whiteSpace=wrap;rounded=0;labelBackgroundColor=none;fontColor=#1A1A1A;" parent="6N-OR-rX7I9fa5nj2j5N-66" vertex="1">
          <mxGeometry x="5" y="40" width="60" height="20" as="geometry" />
        </mxCell>
        <mxCell id="imeoNMSqgMloeCfzLiQH-24" value="" style="endArrow=classic;html=1;rounded=0;exitX=1;exitY=0.5;exitDx=0;exitDy=0;labelBackgroundColor=none;strokeColor=#182E3E;fontColor=default;" parent="6N-OR-rX7I9fa5nj2j5N-67" source="imeoNMSqgMloeCfzLiQH-6" edge="1">
          <mxGeometry width="50" height="50" relative="1" as="geometry">
            <mxPoint x="-575" y="-70" as="sourcePoint" />
            <mxPoint x="60" y="30" as="targetPoint" />
          </mxGeometry>
        </mxCell>
        <mxCell id="6N-OR-rX7I9fa5nj2j5N-68" value="&amp;lt;&amp;lt;map&amp;gt;&amp;gt;" style="text;html=1;strokeColor=none;fillColor=none;align=center;verticalAlign=middle;whiteSpace=wrap;rounded=0;labelBackgroundColor=none;fontColor=#1A1A1A;" vertex="1" parent="WIyWlLk6GJQsqaUBKTNV-1">
          <mxGeometry x="384" y="380" width="60" height="30" as="geometry" />
        </mxCell>
        <mxCell id="6N-OR-rX7I9fa5nj2j5N-88" value="" style="endArrow=classic;html=1;rounded=0;exitX=0;exitY=0.5;exitDx=0;exitDy=0;entryX=1;entryY=0.5;entryDx=0;entryDy=0;labelBackgroundColor=none;strokeColor=#182E3E;fontColor=default;" edge="1" parent="WIyWlLk6GJQsqaUBKTNV-1" source="imeoNMSqgMloeCfzLiQH-43" target="imeoNMSqgMloeCfzLiQH-36">
          <mxGeometry width="50" height="50" relative="1" as="geometry">
            <mxPoint x="260" y="770" as="sourcePoint" />
            <mxPoint x="310" y="720" as="targetPoint" />
          </mxGeometry>
        </mxCell>
        <mxCell id="6N-OR-rX7I9fa5nj2j5N-89" value="&amp;lt;&amp;lt;map&amp;gt;&amp;gt;" style="text;html=1;strokeColor=none;fillColor=none;align=center;verticalAlign=middle;whiteSpace=wrap;rounded=0;labelBackgroundColor=none;fontColor=#1A1A1A;" vertex="1" parent="WIyWlLk6GJQsqaUBKTNV-1">
          <mxGeometry x="374" y="800" width="60" height="30" as="geometry" />
        </mxCell>
        <mxCell id="6N-OR-rX7I9fa5nj2j5N-97" value="&lt;font style=&quot;font-size: 18px;&quot;&gt;*&lt;/font&gt;" style="text;html=1;strokeColor=none;fillColor=none;align=center;verticalAlign=middle;whiteSpace=wrap;rounded=0;labelBackgroundColor=none;fontColor=#1A1A1A;" vertex="1" parent="WIyWlLk6GJQsqaUBKTNV-1">
          <mxGeometry x="280" y="830" width="60" height="30" as="geometry" />
        </mxCell>
        <mxCell id="6N-OR-rX7I9fa5nj2j5N-98" value="- clients" style="text;html=1;strokeColor=none;fillColor=none;align=center;verticalAlign=middle;whiteSpace=wrap;rounded=0;labelBackgroundColor=none;fontColor=#1A1A1A;" vertex="1" parent="WIyWlLk6GJQsqaUBKTNV-1">
          <mxGeometry x="290" y="800" width="60" height="30" as="geometry" />
        </mxCell>
      </root>
    </mxGraphModel>
  </diagram>
</mxfile>
